# xmcd
#
# Track frame offsets: 
#        150
#        14155
#        24352
#        34195
#        46713
#        61156
#        72342
#        84540
#        92096
#        105176
#        115126
#        126708
#
# Disc length: 1885 seconds
#
# Revision: 1
# Processed by: cddbd v1.5.2PL0 Copyright (c) Steve Scherf et al.
# Submitted via: ExactAudioCopy v1.0b3
#
DISCID=99075b0c
DTITLE=The Love Generation - Montage
DYEAR=1968
DGENRE=Pop
TTITLE0=Montage From How Sweet It Is (I Knew That You Knew)
TTITLE1=Let The Good Times In
TTITLE2=I Keep On Talking
TTITLE3=Love And Sunshine
TTITLE4=A Touch Of Love
TTITLE5=Candy
TTITLE6=Love Is A Rainy Sunday
TTITLE7=The PIll
TTITLE8=Sunrise Highway
TTITLE9=Magic Land
TTITLE10=You
TTITLE11=Consciousness Expansion
EXTD=YEAR: 1968
EXTT0=
EXTT1=
EXTT2=
EXTT3=
EXTT4=
EXTT5=
EXTT6=
EXTT7=
EXTT8=
EXTT9=
EXTT10=
EXTT11=
PLAYORDER=
